<svg width="22" height="16" viewBox="0 0 22 16" fill="none" xmlns="http://www.w3.org/2000/svg">
    <path d="M8.8 11.4106L14.509 7.99677L8.8 4.58297V11.4106ZM21.516 2.50056C21.659 3.03539 21.758 3.75228 21.824 4.66263C21.901 5.57297 21.934 6.35815 21.934 7.0409L22 7.99677C22 10.4888 21.824 12.3209 21.516 13.493C21.241 14.5171 20.603 15.1771 19.613 15.4616C19.096 15.6095 18.15 15.7119 16.698 15.7802C15.268 15.8599 13.959 15.894 12.749 15.894L11 15.9623C6.391 15.9623 3.52 15.7802 2.387 15.4616C1.397 15.1771 0.759 14.5171 0.484 13.493C0.341 12.9581 0.242 12.2413 0.176 11.3309C0.0990001 10.4206 0.0659999 9.63539 0.0659999 8.95263L0 7.99677C0 5.5047 0.176 3.67263 0.484 2.50056C0.759 1.47642 1.397 0.816422 2.387 0.53194C2.904 0.384009 3.85 0.281595 5.302 0.213319C6.732 0.133664 8.041 0.0995258 9.251 0.0995258L11 0.03125C15.609 0.03125 18.48 0.213319 19.613 0.53194C20.603 0.816422 21.241 1.47642 21.516 2.50056Z" fill="#444444"/>
</svg>
